<?xml version="1.0" encoding="UTF-8"?>
<svg width="133px" height="199px" viewBox="0 0 133 199" version="1.1" xmlns="http://www.w3.org/2000/svg" xmlns:xlink="http://www.w3.org/1999/xlink">
    <!-- Generator: Sketch 54.1 (76490) - https://sketchapp.com -->
    <title>Logo</title>
    <desc>Created with Sketch.</desc>
    <defs>
        <linearGradient x1="50%" y1="0%" x2="50%" y2="100%" id="linearGradient-1">
            <stop stop-color="#5D5AF6" offset="0%"></stop>
            <stop stop-color="#0066FF" offset="100%"></stop>
        </linearGradient>
    </defs>
    <g id="Travel-App" stroke="none" stroke-width="1" fill="none" fill-rule="evenodd">
        <g id="Welcome" transform="translate(-121.000000, -154.000000)">
            <g id="Logo" transform="translate(118.000000, 154.000000)">
                <g id="Group-3" transform="translate(7.000000, 0.000000)" fill="url(#linearGradient-1)">
                    <path d="M47.7891493,80.2724479 C53.9550844,76.1212321 60.4416482,72.5195552 61.5045012,72.0239682 C62.5673543,71.5291519 62.8440506,72.902614 62.8440506,72.902614 L65.9470575,83.1789156 L68.964512,106.217932 C72.5500033,104.287994 72.6178285,103.519565 72.7950992,102.344954 L77.6831442,64.5300448 C77.6831442,64.5300448 86.2530233,58.9729958 94.1562107,54.7192713 C97.8164639,52.749255 104.875689,46.6758089 103.645585,44.3897885 C102.41471,42.1045388 93.3384535,44.7158123 89.7976653,46.621857 C82.2975759,50.6582323 72.5361299,54.9682209 72.5361299,54.9682209 L38.2812773,38.2223119 C36.9633087,37.5633276 36.3744619,37.4369259 32.9384946,39.2867064 L50.5075559,54.4934439 L57.3679295,62.7280503 C57.3679295,62.7280503 58.3614158,63.7153706 57.3625343,64.3304227 C56.3636528,64.9447039 51.9234088,68.0793112 46.5906457,70.8979143 C46.5906457,70.8979143 25.9740708,82.6332303 14.0429864,81.7769361 C6.55214595,81.2381875 -0.0245945931,77.0122097 6.91474262e-05,69.5021007 L0.0925581742,40.9715482 C0.10720227,36.5598216 2.47492136,32.4895337 6.30319632,30.2960023 L56.3228035,1.63442362 C60.1518492,-0.559107801 64.8587699,-0.543692963 68.6731715,1.6745022 L118.505488,30.6621047 C122.31989,32.8810706 124.659862,36.9660026 124.645989,41.3784999 L124.457928,99.0276811 C124.443284,103.440178 122.076336,107.509696 118.248061,109.703998 L68.2276827,138.365576 C64.3994078,140.559108 59.6909456,140.543693 55.8773147,138.325498 L25.839191,120.852008 C18.7907564,116.752432 18.7529901,108.058464 23.4005637,101.359175 C30.0929155,91.711799 47.7891493,80.2724479 47.7891493,80.2724479" id="Fill-1"></path>
                </g>
                <text id="EasyGO" font-family="Avenir-Medium, Avenir" font-size="37.5159" font-weight="400" fill="#000000">
                    <tspan x="0" y="190">EasyGO</tspan>
                </text>
            </g>
        </g>
    </g>
</svg>